<svg width="19" height="21" viewBox="0 0 19 21" fill="none" xmlns="http://www.w3.org/2000/svg">
<path d="M17.7539 16.8242C18.0703 17.1758 18.0703 17.7031 17.7188 18.0195L16.7344 19.0039C16.418 19.3555 15.8906 19.3555 15.5391 19.0039L12.0586 15.5234C11.8828 15.3477 11.8125 15.1367 11.8125 14.9258V14.3281C10.5469 15.3125 9 15.875 7.3125 15.875C3.26953 15.875 0 12.6055 0 8.5625C0 4.55469 3.26953 1.25 7.3125 1.25C11.3203 1.25 14.625 4.55469 14.625 8.5625C14.625 10.2852 14.0273 11.832 13.0781 13.0625H13.6406C13.8516 13.0625 14.0625 13.168 14.2383 13.3086L17.7539 16.8242ZM7.3125 13.0625C9.77344 13.0625 11.8125 11.0586 11.8125 8.5625C11.8125 6.10156 9.77344 4.0625 7.3125 4.0625C4.81641 4.0625 2.8125 6.10156 2.8125 8.5625C2.8125 11.0586 4.81641 13.0625 7.3125 13.0625Z" fill="#646CFF"/>
</svg>
